<?xml version="1.0" encoding="utf-8"?>
<!-- Generator: Adobe Illustrator 25.0.0, SVG Export Plug-In . SVG Version: 6.00 Build 0)  -->
<svg version="1.1" xmlns="http://www.w3.org/2000/svg" xmlns:xlink="http://www.w3.org/1999/xlink" x="0px" y="0px"
	 viewBox="0 0 1080 1080" style="enable-background:new 0 0 1080 1080;" xml:space="preserve">
<style type="text/css">
	.st0{display:none;}
	.st1{display:inline;}
	.st2{fill:#0050C8;}
	.st3{fill:#FFFFFF;}
	.st4{fill:#0A143C;}
	.st5{fill-rule:evenodd;clip-rule:evenodd;fill:#0A143C;}
	.st6{fill:url(#SVGID_1_);}
	.st7{fill:url(#SVGID_2_);}
	.st8{fill:url(#SVGID_3_);}
	.st9{fill:url(#SVGID_4_);}
	.st10{fill:url(#SVGID_5_);}
	.st11{fill:url(#SVGID_6_);}
	.st12{fill:url(#SVGID_7_);}
	.st13{fill:url(#SVGID_8_);}
	.st14{fill:url(#SVGID_9_);}
	.st15{fill:url(#SVGID_10_);}
</style>
<g id="Layer_1" xmlns:serif="http://www.serif.com/" class="st0">
	<g class="st1">
		<g>
			<path class="st2" d="M0,690.5V427.1c0-21.6,17.7-39.3,39.3-39.3h261.3c21.6,0,39.3,17.7,39.3,39.3v261.3c0,0.7,0,1.3,0,1.9
				l-54.3-53.7c-4.4-4.4-11.8-6.6-16.3-4.9c-4.6,1.7-11.6-0.8-15.5-5.6l-64.1-77c-3.9-4.8-10.5-4.8-14.5,0l-53.6,63.7
				c-4,4.7-11.4,5.7-16.5,2.2L92,606c-5.1-3.6-12.5-2.6-16.5,2.2l-7.4,8.9c-4,4.7-9.7,8.6-12.7,8.6c-3,0-8.8,3.8-12.8,8.6L0,690.5
				L0,690.5z"/>
			<path class="st3" d="M189.8,565.7c-4-4.8-10.4-4.8-14.4,0l-41.1,49.7c-4,4.8-3.3,5.5,1.5,1.5l12.5-10.2
				c4.8-3.9,11.5-6.6,14.8-5.9c3.3,0.6,8-0.7,10.5-3.1c2.4-2.4,8.9-2,14.5,0.7l15.5,7.8c5.5,2.8,9,1.4,7.7-3c-1.3-4.4-1.3-8.2,0-8.3
				c1.3-0.1-0.8-4.2-4.8-8.9L189.8,565.7L189.8,565.7z"/>
			<path class="st3" d="M248.8,640c-3.7-4.4-5-4.9-2.9-1.1c2.2,3.8,2.9,19,7.1,19.7c4.3,0.8,9.6,3.1,11.9,5c2.3,1.9,6,2.7,8.3,1.5
				c2.3-1.1,9-0.5,15,1.3l8.2,2.5c5.9,1.8,7.2-0.3,2.7-4.6l-14.1-13.8c-4.4-4.4-11.9-6.8-16.5-5.4c-4.6,1.4-9.5,2.6-10.7,2.6
				C256.6,647.9,252.5,644.4,248.8,640"/>
			<path class="st3" d="M95.5,621.1c-5.1-3.6-12.5-2.7-16.5,2.1l-4.9,5.7c-4,4.7-10.3,8.6-14,8.6c-3.7,0-10,3.8-14.1,8.5l-7.3,8.3
				c-4.1,4.7-3,6,2.4,2.9l1.8-1c5.4-3,11.6-5.4,13.9-5.3c2.2,0.1,7.8-3.2,12.4-7.3l0.7-0.6c4.6-4.2,9.8-6.4,11.6-5.1
				c1.8,1.4,5,0.6,7.1-1.7c2.2-2.3,8.4-3.9,13.9-3.5c5.5,0.3,5.9-2.3,0.8-5.9L95.5,621.1L95.5,621.1z"/>
		</g>
		<g>
			<path class="st2" d="M483.1,669.5c-7.8,4.1-17.6,6.2-29.3,6.2c-15.1,0-27.2-4.9-36.2-14.6c-9.1-9.7-13.6-22.4-13.6-38.2
				c0-17,5.1-30.7,15.3-41.1c10.2-10.4,23.1-15.7,38.8-15.7c10.1,0,18.4,1.5,25,4.4v13.2c-7.6-4.2-16-6.4-25.1-6.4
				c-12.2,0-22,4.1-29.6,12.2c-7.6,8.1-11.3,19-11.3,32.6c0,12.9,3.5,23.2,10.6,30.9c7.1,7.7,16.3,11.5,27.8,11.5
				c10.6,0,19.9-2.4,27.7-7.1L483.1,669.5L483.1,669.5z"/>
			<path class="st2" d="M592.8,673.9H578l-17.7-29.7c-1.6-2.8-3.2-5.1-4.7-7.1c-1.5-1.9-3.1-3.5-4.7-4.8s-3.3-2.1-5.2-2.7
				c-1.9-0.6-3.9-0.8-6.2-0.8h-10.2v45.1h-12.4v-106h31.6c4.6,0,8.9,0.6,12.8,1.7c3.9,1.2,7.3,2.9,10.2,5.3c2.9,2.4,5.1,5.3,6.8,8.8
				c1.6,3.5,2.4,7.7,2.4,12.4c0,3.7-0.6,7.1-1.7,10.2c-1.1,3.1-2.7,5.8-4.7,8.2c-2,2.4-4.5,4.5-7.4,6.2c-2.9,1.7-6.1,3-9.7,4v0.3
				c1.8,0.8,3.3,1.7,4.6,2.7c1.3,1,2.5,2.2,3.7,3.6c1.2,1.4,2.4,2.9,3.5,4.7c1.2,1.8,2.4,3.8,3.9,6.1L592.8,673.9L592.8,673.9z
				 M529.2,579.2v38.4h16.9c3.1,0,6-0.5,8.6-1.4s4.9-2.3,6.8-4c1.9-1.7,3.4-3.9,4.5-6.4c1.1-2.5,1.6-5.4,1.6-8.5
				c0-5.7-1.8-10.1-5.5-13.3c-3.7-3.2-9-4.8-15.9-4.8L529.2,579.2L529.2,579.2z"/>
			<path class="st2" d="M727.6,673.9h-12.3v-71.1c0-5.6,0.3-12.5,1-20.6H716c-1.2,4.8-2.2,8.2-3.2,10.3l-36.2,81.5h-6.1l-36.2-80.9
				c-1-2.4-2.1-6-3.2-10.9h-0.3c0.4,4.2,0.6,11.2,0.6,20.8v71h-12v-106h16.4l32.5,73.9c2.5,5.7,4.1,9.9,4.9,12.7h0.4
				c2.1-5.8,3.8-10.2,5.1-13l33.2-73.6h15.5V673.9L727.6,673.9z"/>
			<path class="st2" d="M877.3,673.9h-56.2v-106H875v11.2h-41.4v35.3h38.3v11.2h-38.3v37.1h43.8V673.9L877.3,673.9z"/>
			<path class="st2" d="M985.8,673.9H971l-17.7-29.7c-1.6-2.8-3.2-5.1-4.7-7.1c-1.5-1.9-3.1-3.5-4.7-4.8c-1.6-1.2-3.3-2.1-5.2-2.7
				c-1.8-0.6-3.9-0.8-6.2-0.8h-10.2v45.1h-12.4v-106h31.6c4.6,0,8.9,0.6,12.8,1.7c3.9,1.2,7.3,2.9,10.2,5.3c2.9,2.4,5.1,5.3,6.8,8.8
				c1.6,3.5,2.4,7.7,2.4,12.4c0,3.7-0.6,7.1-1.7,10.2c-1.1,3.1-2.7,5.8-4.7,8.2s-4.5,4.5-7.4,6.2c-2.9,1.7-6.1,3-9.7,4v0.3
				c1.8,0.8,3.3,1.7,4.6,2.7c1.3,1,2.6,2.2,3.7,3.6c1.2,1.4,2.4,2.9,3.5,4.7c1.2,1.8,2.4,3.8,3.9,6.1L985.8,673.9L985.8,673.9z
				 M922.3,579.2v38.4h16.9c3.1,0,6-0.5,8.6-1.4c2.6-0.9,4.9-2.3,6.8-4c1.9-1.7,3.4-3.9,4.5-6.4c1.1-2.5,1.6-5.4,1.6-8.5
				c0-5.7-1.8-10.1-5.5-13.3c-3.7-3.2-9-4.8-15.9-4.8L922.3,579.2L922.3,579.2z"/>
			<path class="st2" d="M1024.9,633.9v40.1h-12.4v-106h29.1c11.3,0,20.1,2.8,26.4,8.3c6.2,5.5,9.4,13.3,9.4,23.4
				s-3.5,18.3-10.4,24.7c-6.9,6.4-16.3,9.6-28.1,9.6H1024.9L1024.9,633.9z M1024.9,579.2v43.5h13c8.6,0,15.1-2,19.6-5.9
				c4.5-3.9,6.8-9.4,6.8-16.6c0-14-8.3-21-24.8-21H1024.9L1024.9,579.2z"/>
			<g>
				<path class="st4" d="M426.1,531.4h-23.6v-94.5h23.6V531.4z M426.1,421.9h-23.6v-19.3h23.6V421.9z"/>
				<path class="st4" d="M498.9,510c26.6,0,40-15.1,40-46.5c0-26.7-13.3-39.5-40-39.5h-25.5V510C473.4,510,498.9,510,498.9,510z
					 M449.7,531.4V402.6h49.1c42.5,0,63.8,20.5,63.8,60.9c0,45.1-21.3,67.9-63.8,67.9H449.7z"/>
				<path class="st4" d="M580.8,480.8v-78.2h23.7v78.2c0,20.5,11.3,30.7,32.2,30.7s32.2-10.2,32.2-30.7v-78.2h23.6v78.2
					c0,34.2-19,51.3-55.9,51.3S580.8,515.1,580.8,480.8"/>
				<path class="st4" d="M716.2,531.4V402.6H775c26.2,0,39.3,11.6,39.3,34.5c0,15.5-10.2,28.5-30.6,38.7l40.7,55.6h-30l-39.6-56.1
					v-10.9c23.6-3.9,34.4-12.6,34.4-26.4c0-9.5-5.1-14.1-15.7-14.1h-31.5v107.4H716.2L716.2,531.4z"/>
				<path class="st4" d="M847,531.4h-24.4l54.5-128.9h25.6l55.7,128.9h-25.6l-14.6-34.4h-42.7l8.2-21.5h25.9l-20.2-48.1L847,531.4z"
					/>
				<path class="st4" d="M971.8,531.4V402.6h58.8c26.2,0,39.3,11.6,39.3,34.5c0,15.5-10.2,28.5-30.6,38.7l40.7,55.6h-30l-39.5-56.1
					v-10.9c23.6-3.9,34.4-12.6,34.4-26.4c0-9.5-5.1-14.1-15.8-14.1h-31.5v107.4H971.8z"/>
			</g>
			<path class="st5" d="M801,568h-11l-38.8,105.9h11L801,568z"/>
		</g>
	</g>
</g>
<g id="Layer_2">
	
		<radialGradient id="SVGID_1_" cx="0.3175" cy="1078.8373" r="1" gradientTransform="matrix(1387.7544 184.1571 35.0746 -264.3119 -37880.5508 285456.875)" gradientUnits="userSpaceOnUse">
		<stop  offset="0" style="stop-color:#5CE1E6"/>
		<stop  offset="0.4" style="stop-color:#33BBCF"/>
		<stop  offset="1" style="stop-color:#050814"/>
	</radialGradient>
	<path class="st6" d="M428.8,499.1h82.3v26H399.9V368.5h28.9V499.1z"/>
	
		<radialGradient id="SVGID_2_" cx="0.3175" cy="1078.8373" r="1" gradientTransform="matrix(1387.7544 184.1571 35.0746 -264.3119 -37880.5508 285456.875)" gradientUnits="userSpaceOnUse">
		<stop  offset="0" style="stop-color:#5CE1E6"/>
		<stop  offset="0.4" style="stop-color:#33BBCF"/>
		<stop  offset="1" style="stop-color:#050814"/>
	</radialGradient>
	<path class="st7" d="M589.9,503.2c11.2,0,24.5-5,31.2-11.8l17.9,18.2c-10.5,10.9-31.5,18.2-49,18.2c-34.5,0-62.9-25.7-62.9-62
		c0-35.3,27-61.3,61.3-61.3c37.3,0,59,27.6,59,71.1h-90.9C560.1,491.8,572.7,503.2,589.9,503.2z M589.7,429.2
		c-15.9,0-28.7,9.8-32.9,25.3h63.4C617,439.6,606.7,429.2,589.7,429.2z"/>
	
		<radialGradient id="SVGID_3_" cx="0.3175" cy="1078.8373" r="1" gradientTransform="matrix(1387.7544 184.1571 35.0746 -264.3119 -37880.5508 285456.875)" gradientUnits="userSpaceOnUse">
		<stop  offset="0" style="stop-color:#5CE1E6"/>
		<stop  offset="0.4" style="stop-color:#33BBCF"/>
		<stop  offset="1" style="stop-color:#050814"/>
	</radialGradient>
	<path class="st8" d="M895.8,365.8h28.4v159.3h-28.4v-18.2c-9.6,13.2-24,21-41.7,21c-31.9,0-55.2-25.5-55.2-61.7
		c0-36,23.3-61.5,55.2-61.5c17.7,0,32.2,7.7,41.7,21V365.8z M861.7,504.1c20,0,34-16,34-38.1c0-22.1-14-37.8-34-37.8
		c-20.3,0-34.7,15.7-34.7,37.8C827,488.2,841.5,504.1,861.7,504.1z"/>
	
		<radialGradient id="SVGID_4_" cx="-8.500299e-02" cy="1077.9109" r="1" gradientTransform="matrix(1387.7544 184.1571 35.0746 -264.3119 -37880.5508 285456.875)" gradientUnits="userSpaceOnUse">
		<stop  offset="0" style="stop-color:#5CE1E6"/>
		<stop  offset="0.4" style="stop-color:#33BBCF"/>
		<stop  offset="1" style="stop-color:#050814"/>
	</radialGradient>
	<path class="st9" d="M470.7,698.5c-45.7,0-84.1-37.1-84.1-81.1c0-44,38.5-80.9,84.1-80.9c23.5,0,45,9.8,60.4,25.3l-20.7,18.9
		c-9.8-11.2-24.2-18.2-39.6-18.2c-29.6,0-54.5,25.1-54.5,54.9c0,30.1,24.9,55.1,54.5,55.1c15.6,0,29.8-7.1,39.9-18.2l20.5,18.7
		C515.7,688.7,494.2,698.5,470.7,698.5z"/>
	
		<radialGradient id="SVGID_5_" cx="-8.500299e-02" cy="1077.9109" r="1" gradientTransform="matrix(1387.7544 184.1571 35.0746 -264.3119 -37880.5508 285456.875)" gradientUnits="userSpaceOnUse">
		<stop  offset="0" style="stop-color:#5CE1E6"/>
		<stop  offset="0.4" style="stop-color:#33BBCF"/>
		<stop  offset="1" style="stop-color:#050814"/>
	</radialGradient>
	<path class="st10" d="M634.2,578h28.4v117.8h-28.4v-15.7c-7.5,10.9-21.4,18.5-37.3,18.5c-26.3,0-44.8-18.9-44.8-45.6v-75h27.5v69.5
		c0,15.9,10.5,27.3,25.4,27.3c14.9,0,27.3-9.8,29.1-22.3V578z"/>
	
		<radialGradient id="SVGID_6_" cx="-8.500299e-02" cy="1077.9109" r="1" gradientTransform="matrix(1387.7544 184.1571 35.0746 -264.3119 -37880.5508 285456.875)" gradientUnits="userSpaceOnUse">
		<stop  offset="0" style="stop-color:#5CE1E6"/>
		<stop  offset="0.4" style="stop-color:#33BBCF"/>
		<stop  offset="1" style="stop-color:#050814"/>
	</radialGradient>
	<path class="st11" d="M723.1,600.8c7.7-15.7,23.3-25.5,43.1-25.5V599c-25.9,0-43.1,15-43.1,37.4v59.5h-28.4V578h28.4V600.8z"/>
	
		<radialGradient id="SVGID_7_" cx="-8.500299e-02" cy="1077.9109" r="1" gradientTransform="matrix(1387.7544 184.1571 35.0746 -264.3119 -37880.5508 285456.875)" gradientUnits="userSpaceOnUse">
		<stop  offset="0" style="stop-color:#5CE1E6"/>
		<stop  offset="0.4" style="stop-color:#33BBCF"/>
		<stop  offset="1" style="stop-color:#050814"/>
	</radialGradient>
	<path class="st12" d="M843.5,673.9c11.2,0,24.5-5,31.2-11.8l18,18.2c-10.5,10.9-31.5,18.2-49,18.2c-34.5,0-62.9-25.7-62.9-62
		c0-35.3,27-61.3,61.3-61.3c37.3,0,59,27.6,59,71.1h-90.9C813.7,662.5,826.2,673.9,843.5,673.9z M843.3,599.9
		c-15.8,0-28.7,9.8-32.9,25.3h63.4C870.5,610.4,860.3,599.9,843.3,599.9z"/>
	
		<radialGradient id="SVGID_8_" cx="-8.500299e-02" cy="1077.9109" r="1" gradientTransform="matrix(1387.7544 184.1571 35.0746 -264.3119 -37880.5508 285456.875)" gradientUnits="userSpaceOnUse">
		<stop  offset="0" style="stop-color:#5CE1E6"/>
		<stop  offset="0.4" style="stop-color:#33BBCF"/>
		<stop  offset="1" style="stop-color:#050814"/>
	</radialGradient>
	<path class="st13" d="M1017.3,536.5h28.4v159.3h-28.4v-18.2c-9.6,13.2-24,21-41.7,21c-31.9,0-55.2-25.5-55.2-61.7
		c0-36,23.3-61.5,55.2-61.5c17.7,0,32.2,7.7,41.7,21V536.5z M983.3,674.8c20,0,34-16,34-38.1c0-22.1-14-37.8-34-37.8
		c-20.3,0-34.7,15.7-34.7,37.8C948.6,658.9,963,674.8,983.3,674.8z"/>
	
		<radialGradient id="SVGID_9_" cx="0.3175" cy="1078.8373" r="1" gradientTransform="matrix(1387.7544 184.1571 35.0746 -264.3119 -37880.5508 285456.875)" gradientUnits="userSpaceOnUse">
		<stop  offset="0" style="stop-color:#5CE1E6"/>
		<stop  offset="0.4" style="stop-color:#33BBCF"/>
		<stop  offset="1" style="stop-color:#050814"/>
	</radialGradient>
	<path class="st14" d="M785.7,525.1V369l-139,156.1H785.7z"/>
	
		<radialGradient id="SVGID_10_" cx="-0.2498" cy="1078.3873" r="1.9242" gradientTransform="matrix(1387.7544 184.1571 35.0746 -264.3119 -37880.5508 285456.875)" gradientUnits="userSpaceOnUse">
		<stop  offset="0" style="stop-color:#5CE1E6"/>
		<stop  offset="0.4" style="stop-color:#33BBCF"/>
		<stop  offset="1" style="stop-color:#050814"/>
	</radialGradient>
	<path class="st15" d="M339.1,686.7V386.4L71.6,686.7H339.1z"/>
</g>
</svg>
