<?xml version="1.0" encoding="utf-8"?>
<!-- Generator: Adobe Illustrator 25.0.0, SVG Export Plug-In . SVG Version: 6.00 Build 0)  -->
<svg version="1.1" xmlns="http://www.w3.org/2000/svg" xmlns:xlink="http://www.w3.org/1999/xlink" x="0px" y="0px"
	 viewBox="0 0 35 32" style="enable-background:new 0 0 35 32;" xml:space="preserve">
<style type="text/css">
	.st0{display:none;}
	.st1{display:inline;fill:#0050C8;}
	.st2{display:inline;fill:#FFFFFF;}
	.st3{fill:url(#SVGID_1_);}
</style>
<g id="Layer_1" class="st0">
	<path class="st1" d="M0,32V4.2C0,1.9,1.8,0,4,0H31c2.2,0,4,1.9,4,4.2v27.6c0,0.1,0,0.1,0,0.2l-5.6-5.7c-0.5-0.5-1.2-0.7-1.7-0.5
		c-0.5,0.2-1.2-0.1-1.6-0.6l-6.6-8.1c-0.4-0.5-1.1-0.5-1.5,0l-5.5,6.7c-0.4,0.5-1.2,0.6-1.7,0.2l-1.3-1c-0.5-0.4-1.3-0.3-1.7,0.2
		L7,24.2c-0.4,0.5-1,0.9-1.3,0.9c-0.3,0-0.9,0.4-1.3,0.9L0,32z"/>
	<path class="st2" d="M19.5,18.8c-0.4-0.5-1.1-0.5-1.5,0l-4.2,5.3c-0.4,0.5-0.3,0.6,0.2,0.2l1.3-1.1c0.5-0.4,1.2-0.7,1.5-0.6
		c0.3,0.1,0.8-0.1,1.1-0.3c0.2-0.2,0.9-0.2,1.5,0.1l1.6,0.8c0.6,0.3,0.9,0.1,0.8-0.3c-0.1-0.5-0.1-0.9,0-0.9c0.1,0-0.1-0.4-0.5-0.9
		L19.5,18.8z"/>
	<path class="st2" d="M25.6,26.7c-0.4-0.5-0.5-0.5-0.3-0.1c0.2,0.4,0.3,2,0.7,2.1c0.4,0.1,1,0.3,1.2,0.5c0.2,0.2,0.6,0.3,0.9,0.2
		c0.2-0.1,0.9-0.1,1.5,0.1l0.8,0.3c0.6,0.2,0.7,0,0.3-0.5l-1.5-1.5c-0.5-0.5-1.2-0.7-1.7-0.6c-0.5,0.1-1,0.3-1.1,0.3
		C26.4,27.5,26,27.1,25.6,26.7z"/>
	<path class="st2" d="M9.8,24.7c-0.5-0.4-1.3-0.3-1.7,0.2l-0.5,0.6c-0.4,0.5-1.1,0.9-1.4,0.9c-0.4,0-1,0.4-1.5,0.9L4,28.2
		c-0.4,0.5-0.3,0.6,0.2,0.3l0.2-0.1C5,28,5.6,27.8,5.9,27.8c0.2,0,0.8-0.3,1.3-0.8L7.2,27c0.5-0.4,1-0.7,1.2-0.5
		c0.2,0.1,0.5,0.1,0.7-0.2c0.2-0.2,0.9-0.4,1.4-0.4c0.6,0,0.6-0.2,0.1-0.6L9.8,24.7z"/>
</g>
<g id="Layer_2">
	
		<radialGradient id="SVGID_1_" cx="-521.6127" cy="555.2938" r="0.2058" gradientTransform="matrix(1387.7544 184.1571 35.0746 -264.3119 704349.25 242828.7188)" gradientUnits="userSpaceOnUse">
		<stop  offset="0" style="stop-color:#5CE1E6"/>
		<stop  offset="0.4" style="stop-color:#33BBCF"/>
		<stop  offset="1" style="stop-color:#050814"/>
	</radialGradient>
	<path class="st3" d="M35,32.1V-0.1L6.4,32.1H35z"/>
</g>
</svg>
