<?xml version="1.0" encoding="utf-8"?>
<!-- Generator: Adobe Illustrator 25.0.0, SVG Export Plug-In . SVG Version: 6.00 Build 0)  -->
<svg version="1.1" xmlns="http://www.w3.org/2000/svg" xmlns:xlink="http://www.w3.org/1999/xlink" x="0px" y="0px"
	 viewBox="0 0 71 30" style="enable-background:new 0 0 71 30;" xml:space="preserve">
<style type="text/css">
	.st0{display:none;}
	.st1{display:inline;fill:#0050C8;}
	.st2{display:inline;fill:#0A143C;}
	.st3{display:inline;fill-rule:evenodd;clip-rule:evenodd;fill:#0A143C;}
	.st4{fill:url(#SVGID_1_);}
	.st5{fill:url(#SVGID_2_);}
	.st6{fill:url(#SVGID_3_);}
	.st7{fill:url(#SVGID_4_);}
	.st8{fill:url(#SVGID_5_);}
	.st9{fill:url(#SVGID_6_);}
	.st10{fill:url(#SVGID_7_);}
	.st11{fill:url(#SVGID_8_);}
	.st12{fill:url(#SVGID_9_);}
</style>
<g id="Layer_1" class="st0">
	<path class="st1" d="M8.4,28.4c-0.8,0.4-1.8,0.7-3,0.7c-1.6,0-2.8-0.5-3.7-1.5c-0.9-1-1.4-2.4-1.4-4.1c0-1.8,0.5-3.3,1.6-4.4
		c1.1-1.1,2.4-1.7,4-1.7c1,0,1.9,0.2,2.6,0.5v1.4c-0.8-0.4-1.6-0.7-2.6-0.7c-1.3,0-2.3,0.4-3.1,1.3c-0.8,0.9-1.2,2-1.2,3.5
		c0,1.4,0.4,2.5,1.1,3.3c0.7,0.8,1.7,1.2,2.9,1.2c1.1,0,2.1-0.3,2.9-0.8V28.4z"/>
	<path class="st1" d="M19.7,28.9h-1.5l-1.8-3.2c-0.2-0.3-0.3-0.5-0.5-0.7c-0.2-0.2-0.3-0.4-0.5-0.5c-0.2-0.1-0.3-0.2-0.5-0.3
		c-0.2-0.1-0.4-0.1-0.6-0.1h-1.1v4.8h-1.3V17.6h3.3c0.5,0,0.9,0.1,1.3,0.2c0.4,0.1,0.8,0.3,1.1,0.6c0.3,0.3,0.5,0.6,0.7,0.9
		c0.2,0.4,0.3,0.8,0.3,1.3c0,0.4-0.1,0.8-0.2,1.1c-0.1,0.3-0.3,0.6-0.5,0.9c-0.2,0.3-0.5,0.5-0.8,0.7c-0.3,0.2-0.6,0.3-1,0.4v0
		c0.2,0.1,0.3,0.2,0.5,0.3c0.1,0.1,0.3,0.2,0.4,0.4c0.1,0.1,0.2,0.3,0.4,0.5c0.1,0.2,0.3,0.4,0.4,0.6L19.7,28.9z M13.2,18.8v4.1h1.7
		c0.3,0,0.6,0,0.9-0.1c0.3-0.1,0.5-0.2,0.7-0.4c0.2-0.2,0.4-0.4,0.5-0.7c0.1-0.3,0.2-0.6,0.2-0.9c0-0.6-0.2-1.1-0.6-1.4
		c-0.4-0.3-0.9-0.5-1.6-0.5H13.2z"/>
	<path class="st1" d="M33.7,28.9h-1.3v-7.6c0-0.6,0-1.3,0.1-2.2h0c-0.1,0.5-0.2,0.9-0.3,1.1l-3.7,8.6h-0.6L24,20.3
		c-0.1-0.3-0.2-0.6-0.3-1.2h0c0,0.4,0.1,1.2,0.1,2.2v7.5h-1.2V17.6h1.7l3.4,7.8c0.3,0.6,0.4,1.1,0.5,1.4h0c0.2-0.6,0.4-1.1,0.5-1.4
		l3.4-7.8h1.6V28.9z"/>
	<path class="st1" d="M49.1,28.9h-5.8V17.6h5.6v1.2h-4.3v3.7h4v1.2h-4v3.9h4.5V28.9z"/>
	<path class="st1" d="M60.3,28.9h-1.5L57,25.7c-0.2-0.3-0.3-0.5-0.5-0.7c-0.2-0.2-0.3-0.4-0.5-0.5c-0.2-0.1-0.3-0.2-0.5-0.3
		c-0.2-0.1-0.4-0.1-0.6-0.1h-1.1v4.8h-1.3V17.6h3.3c0.5,0,0.9,0.1,1.3,0.2c0.4,0.1,0.8,0.3,1.1,0.6c0.3,0.3,0.5,0.6,0.7,0.9
		c0.2,0.4,0.3,0.8,0.3,1.3c0,0.4-0.1,0.8-0.2,1.1c-0.1,0.3-0.3,0.6-0.5,0.9c-0.2,0.3-0.5,0.5-0.8,0.7c-0.3,0.2-0.6,0.3-1,0.4v0
		c0.2,0.1,0.3,0.2,0.5,0.3c0.1,0.1,0.3,0.2,0.4,0.4c0.1,0.1,0.2,0.3,0.4,0.5c0.1,0.2,0.3,0.4,0.4,0.6L60.3,28.9z M53.8,18.8v4.1h1.7
		c0.3,0,0.6,0,0.9-0.1c0.3-0.1,0.5-0.2,0.7-0.4c0.2-0.2,0.4-0.4,0.5-0.7c0.1-0.3,0.2-0.6,0.2-0.9c0-0.6-0.2-1.1-0.6-1.4
		c-0.4-0.3-0.9-0.5-1.6-0.5H53.8z"/>
	<path class="st1" d="M64.4,24.6v4.3h-1.3V17.6h3c1.2,0,2.1,0.3,2.7,0.9c0.6,0.6,1,1.4,1,2.5c0,1.1-0.4,1.9-1.1,2.6
		c-0.7,0.7-1.7,1-2.9,1H64.4z M64.4,18.8v4.6h1.3c0.9,0,1.6-0.2,2-0.6c0.5-0.4,0.7-1,0.7-1.8c0-1.5-0.9-2.2-2.6-2.2H64.4z"/>
	<path class="st2" d="M2.5,13.7H0.1v-10h2.4V13.7z M2.5,2.1H0.1V0.1h2.4V2.1z"/>
	<path class="st2" d="M10,11.5c2.8,0,4.1-1.6,4.1-4.9c0-2.8-1.4-4.2-4.1-4.2H7.4v9.1H10z M5,13.7V0.1H10c4.4,0,6.6,2.2,6.6,6.5
		c0,4.8-2.2,7.2-6.6,7.2H5z"/>
	<path class="st2" d="M18.5,8.4V0.1h2.4v8.3c0,2.2,1.2,3.3,3.3,3.3s3.3-1.1,3.3-3.3V0.1H30v8.3c0,3.6-2,5.5-5.8,5.5
		S18.5,12,18.5,8.4z"/>
	<path class="st2" d="M32.5,13.7V0.1h6.1c2.7,0,4.1,1.2,4.1,3.7c0,1.6-1.1,3-3.2,4.1l4.2,5.9h-3.1l-4.1-6V6.6
		C38.9,6.2,40,5.3,40,3.8c0-1-0.5-1.5-1.6-1.5h-3.3v11.4H32.5z"/>
	<path class="st2" d="M46,13.7h-2.5l5.6-13.7h2.6l5.8,13.7h-2.6l-1.5-3.6h-4.4l0.8-2.3h2.7l-2.1-5.1L46,13.7z"/>
	<path class="st2" d="M58.9,13.7V0.1H65c2.7,0,4.1,1.2,4.1,3.7c0,1.6-1.1,3-3.2,4.1l4.2,5.9H67l-4.1-6V6.6c2.4-0.4,3.5-1.3,3.5-2.8
		c0-1-0.5-1.5-1.6-1.5h-3.3v11.4H58.9z"/>
	<path class="st3" d="M41.3,17.6h-1.1l-4,11.2h1.1L41.3,17.6z"/>
</g>
<g id="Layer_2">
	
		<radialGradient id="SVGID_1_" cx="-503.5914" cy="554.3012" r="8.908077e-02" gradientTransform="matrix(1387.7544 184.1571 35.0746 -264.3119 679422.75 239248.5781)" gradientUnits="userSpaceOnUse">
		<stop  offset="0" style="stop-color:#5CE1E6"/>
		<stop  offset="0.4" style="stop-color:#33BBCF"/>
		<stop  offset="1" style="stop-color:#050814"/>
	</radialGradient>
	<path class="st4" d="M6.1,12.1h7.3v2.3H3.5V0.5h2.6V12.1z"/>
	
		<radialGradient id="SVGID_2_" cx="-503.5914" cy="554.3012" r="8.908077e-02" gradientTransform="matrix(1387.7544 184.1571 35.0746 -264.3119 679422.75 239248.5781)" gradientUnits="userSpaceOnUse">
		<stop  offset="0" style="stop-color:#5CE1E6"/>
		<stop  offset="0.4" style="stop-color:#33BBCF"/>
		<stop  offset="1" style="stop-color:#050814"/>
	</radialGradient>
	<path class="st5" d="M20.4,12.5c1,0,2.2-0.4,2.8-1.1l1.6,1.6c-0.9,1-2.8,1.6-4.4,1.6c-3.1,0-5.6-2.3-5.6-5.5c0-3.1,2.4-5.5,5.5-5.5
		c3.3,0,5.3,2.5,5.3,6.3h-8.1C17.8,11.5,18.9,12.5,20.4,12.5z M20.4,5.9c-1.4,0-2.6,0.9-2.9,2.3h5.6C22.8,6.8,21.9,5.9,20.4,5.9z"/>
	
		<radialGradient id="SVGID_3_" cx="-503.5914" cy="554.3012" r="8.908077e-02" gradientTransform="matrix(1387.7544 184.1571 35.0746 -264.3119 679422.75 239248.5781)" gradientUnits="userSpaceOnUse">
		<stop  offset="0" style="stop-color:#5CE1E6"/>
		<stop  offset="0.4" style="stop-color:#33BBCF"/>
		<stop  offset="1" style="stop-color:#050814"/>
	</radialGradient>
	<path class="st6" d="M47.7,0.3h2.5v14.2h-2.5v-1.6c-0.9,1.2-2.1,1.9-3.7,1.9c-2.8,0-4.9-2.3-4.9-5.5C39,6,41.1,3.7,44,3.7
		c1.6,0,2.9,0.7,3.7,1.9V0.3z M44.6,12.6c1.8,0,3-1.4,3-3.4c0-2-1.2-3.4-3-3.4c-1.8,0-3.1,1.4-3.1,3.4
		C41.6,11.2,42.8,12.6,44.6,12.6z"/>
	
		<radialGradient id="SVGID_4_" cx="-503.6272" cy="554.2187" r="8.908077e-02" gradientTransform="matrix(1387.7544 184.1571 35.0746 -264.3119 679422.75 239248.5781)" gradientUnits="userSpaceOnUse">
		<stop  offset="0" style="stop-color:#5CE1E6"/>
		<stop  offset="0.4" style="stop-color:#33BBCF"/>
		<stop  offset="1" style="stop-color:#050814"/>
	</radialGradient>
	<path class="st7" d="M9.8,29.9c-4.1,0-7.5-3.3-7.5-7.2c0-3.9,3.4-7.2,7.5-7.2c2.1,0,4,0.9,5.4,2.3l-1.8,1.7c-0.9-1-2.2-1.6-3.5-1.6
		C7.2,17.8,5,20,5,22.7c0,2.7,2.2,4.9,4.9,4.9c1.4,0,2.7-0.6,3.6-1.6l1.8,1.7C13.8,29,11.9,29.9,9.8,29.9z"/>
	
		<radialGradient id="SVGID_5_" cx="-503.6272" cy="554.2187" r="8.908077e-02" gradientTransform="matrix(1387.7544 184.1571 35.0746 -264.3119 679422.75 239248.5781)" gradientUnits="userSpaceOnUse">
		<stop  offset="0" style="stop-color:#5CE1E6"/>
		<stop  offset="0.4" style="stop-color:#33BBCF"/>
		<stop  offset="1" style="stop-color:#050814"/>
	</radialGradient>
	<path class="st8" d="M24.4,19.2h2.5v10.5h-2.5v-1.4c-0.7,1-1.9,1.6-3.3,1.6c-2.3,0-4-1.7-4-4.1v-6.7h2.5v6.2c0,1.4,0.9,2.4,2.3,2.4
		c1.3,0,2.4-0.9,2.6-2V19.2z"/>
	
		<radialGradient id="SVGID_6_" cx="-503.6272" cy="554.2187" r="8.908077e-02" gradientTransform="matrix(1387.7544 184.1571 35.0746 -264.3119 679422.75 239248.5781)" gradientUnits="userSpaceOnUse">
		<stop  offset="0" style="stop-color:#5CE1E6"/>
		<stop  offset="0.4" style="stop-color:#33BBCF"/>
		<stop  offset="1" style="stop-color:#050814"/>
	</radialGradient>
	<path class="st9" d="M32.3,21.2c0.7-1.4,2.1-2.3,3.8-2.3V21c-2.3,0-3.8,1.3-3.8,3.3v5.3h-2.5V19.2h2.5V21.2z"/>
	
		<radialGradient id="SVGID_7_" cx="-503.6272" cy="554.2187" r="8.908077e-02" gradientTransform="matrix(1387.7544 184.1571 35.0746 -264.3119 679422.75 239248.5781)" gradientUnits="userSpaceOnUse">
		<stop  offset="0" style="stop-color:#5CE1E6"/>
		<stop  offset="0.4" style="stop-color:#33BBCF"/>
		<stop  offset="1" style="stop-color:#050814"/>
	</radialGradient>
	<path class="st10" d="M43,27.7c1,0,2.2-0.4,2.8-1.1l1.6,1.6c-0.9,1-2.8,1.6-4.4,1.6c-3.1,0-5.6-2.3-5.6-5.5c0-3.1,2.4-5.5,5.5-5.5
		c3.3,0,5.3,2.5,5.3,6.3h-8.1C40.4,26.7,41.5,27.7,43,27.7z M43,21.1c-1.4,0-2.6,0.9-2.9,2.3h5.6C45.4,22,44.5,21.1,43,21.1z"/>
	
		<radialGradient id="SVGID_8_" cx="-503.6272" cy="554.2187" r="8.908077e-02" gradientTransform="matrix(1387.7544 184.1571 35.0746 -264.3119 679422.75 239248.5781)" gradientUnits="userSpaceOnUse">
		<stop  offset="0" style="stop-color:#5CE1E6"/>
		<stop  offset="0.4" style="stop-color:#33BBCF"/>
		<stop  offset="1" style="stop-color:#050814"/>
	</radialGradient>
	<path class="st11" d="M58.5,15.5H61v14.2h-2.5V28c-0.9,1.2-2.1,1.9-3.7,1.9c-2.8,0-4.9-2.3-4.9-5.5c0-3.2,2.1-5.5,4.9-5.5
		c1.6,0,2.9,0.7,3.7,1.9V15.5z M55.5,27.8c1.8,0,3-1.4,3-3.4c0-2-1.2-3.4-3-3.4c-1.8,0-3.1,1.4-3.1,3.4
		C52.4,26.4,53.7,27.8,55.5,27.8z"/>
	
		<radialGradient id="SVGID_9_" cx="-503.5914" cy="554.3012" r="8.908077e-02" gradientTransform="matrix(1387.7544 184.1571 35.0746 -264.3119 679422.75 239248.5781)" gradientUnits="userSpaceOnUse">
		<stop  offset="0" style="stop-color:#5CE1E6"/>
		<stop  offset="0.4" style="stop-color:#33BBCF"/>
		<stop  offset="1" style="stop-color:#050814"/>
	</radialGradient>
	<path class="st12" d="M37.9,14.5V0.5L25.5,14.5H37.9z"/>
</g>
</svg>
